<svg xmlns="http://www.w3.org/2000/svg" width="430" height="430" style="width:100%;height:100%;transform:translate3d(0,0,0);content-visibility:visible" viewBox="0 0 430 430"><defs><mask id="aY" mask-type="alpha"><use xmlns:ns1="http://www.w3.org/1999/xlink" ns1:href="#a"/></mask><mask id="aW" mask-type="alpha"><g filter="url(#b)"><path fill="#fff" d="M0 0h430v430H0z" opacity="0"/><use xmlns:ns2="http://www.w3.org/1999/xlink" ns2:href="#d"/></g></mask><mask id="aV" mask-type="alpha"><g filter="url(#e)"><path fill="#fff" d="M0 0h430v430H0z" opacity="0"/><use xmlns:ns3="http://www.w3.org/1999/xlink" ns3:href="#f"/></g></mask><mask id="aU" mask-type="alpha"><g filter="url(#g)"><path fill="#fff" d="M0 0h430v430H0z" opacity="0"/><use xmlns:ns4="http://www.w3.org/1999/xlink" ns4:href="#h"/></g></mask><mask id="aT" mask-type="alpha"><g filter="url(#i)"><path fill="#fff" d="M0 0h430v430H0z" opacity="0"/><use xmlns:ns5="http://www.w3.org/1999/xlink" ns5:href="#j"/></g></mask><mask id="aS" mask-type="alpha"><g filter="url(#k)"><path fill="#fff" d="M0 0h430v430H0z" opacity="0"/><use xmlns:ns6="http://www.w3.org/1999/xlink" ns6:href="#l"/></g></mask><mask id="aR" mask-type="alpha"><g filter="url(#m)"><path fill="#fff" d="M0 0h430v430H0z" opacity="0"/><use xmlns:ns7="http://www.w3.org/1999/xlink" ns7:href="#n"/></g></mask><mask id="aQ" mask-type="alpha"><g filter="url(#o)"><path fill="#fff" d="M0 0h430v430H0z" opacity="0"/><use xmlns:ns8="http://www.w3.org/1999/xlink" ns8:href="#p"/></g></mask><mask id="aN" mask-type="alpha"><use xmlns:ns9="http://www.w3.org/1999/xlink" ns9:href="#q"/></mask><mask id="aM" mask-type="alpha"><g filter="url(#r)"><path fill="#fff" d="M0 0h430v430H0z" opacity="0"/><use xmlns:ns10="http://www.w3.org/1999/xlink" ns10:href="#t"/></g></mask><mask id="aL" mask-type="alpha"><g filter="url(#u)"><path fill="#fff" d="M0 0h430v430H0z" opacity="0"/><use xmlns:ns11="http://www.w3.org/1999/xlink" ns11:href="#v"/></g></mask><mask id="aJ" mask-type="alpha"><use xmlns:ns12="http://www.w3.org/1999/xlink" ns12:href="#w"/></mask><mask id="aH" mask-type="alpha"><g filter="url(#x)"><path fill="#fff" d="M0 0h430v430H0z" opacity="0"/><use xmlns:ns13="http://www.w3.org/1999/xlink" ns13:href="#z"/></g></mask><mask id="aG" mask-type="alpha"><g filter="url(#A)"><path fill="#fff" d="M0 0h430v430H0z" opacity="0"/><use xmlns:ns14="http://www.w3.org/1999/xlink" ns14:href="#B"/></g></mask><mask id="aF" mask-type="alpha"><g filter="url(#C)"><path fill="#fff" d="M0 0h430v430H0z" opacity="0"/><use xmlns:ns15="http://www.w3.org/1999/xlink" ns15:href="#D"/></g></mask><mask id="aE" mask-type="alpha"><g filter="url(#E)"><path fill="#fff" d="M0 0h430v430H0z" opacity="0"/><use xmlns:ns16="http://www.w3.org/1999/xlink" ns16:href="#F"/></g></mask><mask id="aD" mask-type="alpha"><g filter="url(#G)"><path fill="#fff" d="M0 0h430v430H0z" opacity="0"/><use xmlns:ns17="http://www.w3.org/1999/xlink" ns17:href="#H"/></g></mask><mask id="aC" mask-type="alpha"><g filter="url(#I)"><path fill="#fff" d="M0 0h430v430H0z" opacity="0"/><use xmlns:ns18="http://www.w3.org/1999/xlink" ns18:href="#J"/></g></mask><mask id="aB" mask-type="alpha"><g filter="url(#K)"><path fill="#fff" d="M0 0h430v430H0z" opacity="0"/><use xmlns:ns19="http://www.w3.org/1999/xlink" ns19:href="#L"/></g></mask><mask id="ax" mask-type="alpha"><use xmlns:ns20="http://www.w3.org/1999/xlink" ns20:href="#M"/></mask><mask id="av" mask-type="alpha"><g filter="url(#N)"><path fill="#fff" d="M0 0h430v430H0z" opacity="0"/><use xmlns:ns21="http://www.w3.org/1999/xlink" ns21:href="#P"/></g></mask><mask id="au" mask-type="alpha"><g filter="url(#Q)"><path fill="#fff" d="M0 0h430v430H0z" opacity="0"/><use xmlns:ns22="http://www.w3.org/1999/xlink" ns22:href="#R"/></g></mask><mask id="at" mask-type="alpha"><g filter="url(#S)"><path fill="#fff" d="M0 0h430v430H0z" opacity="0"/><use xmlns:ns23="http://www.w3.org/1999/xlink" ns23:href="#T"/></g></mask><mask id="as" mask-type="alpha"><g filter="url(#U)"><path fill="#fff" d="M0 0h430v430H0z" opacity="0"/><use xmlns:ns24="http://www.w3.org/1999/xlink" ns24:href="#V"/></g></mask><mask id="ar" mask-type="alpha"><g filter="url(#W)"><path fill="#fff" d="M0 0h430v430H0z" opacity="0"/><use xmlns:ns25="http://www.w3.org/1999/xlink" ns25:href="#X"/></g></mask><mask id="aq" mask-type="alpha"><g filter="url(#Y)"><path fill="#fff" d="M0 0h430v430H0z" opacity="0"/><use xmlns:ns26="http://www.w3.org/1999/xlink" ns26:href="#Z"/></g></mask><mask id="ap" mask-type="alpha"><g filter="url(#aa)"><path fill="#fff" d="M0 0h430v430H0z" opacity="0"/><use xmlns:ns27="http://www.w3.org/1999/xlink" ns27:href="#ab"/></g></mask><mask id="al" mask-type="alpha"><use xmlns:ns28="http://www.w3.org/1999/xlink" ns28:href="#ac"/></mask><filter id="b" width="100%" height="100%" x="0%" y="0%" filterUnits="objectBoundingBox"><feComponentTransfer in="SourceGraphic"><feFuncA tableValues="1.0 0.0" type="table"/></feComponentTransfer></filter><filter id="e" width="100%" height="100%" x="0%" y="0%" filterUnits="objectBoundingBox"><feComponentTransfer in="SourceGraphic"><feFuncA tableValues="1.0 0.0" type="table"/></feComponentTransfer></filter><filter id="g" width="100%" height="100%" x="0%" y="0%" filterUnits="objectBoundingBox"><feComponentTransfer in="SourceGraphic"><feFuncA tableValues="1.0 0.0" type="table"/></feComponentTransfer></filter><filter id="i" width="100%" height="100%" x="0%" y="0%" filterUnits="objectBoundingBox"><feComponentTransfer in="SourceGraphic"><feFuncA tableValues="1.0 0.0" type="table"/></feComponentTransfer></filter><filter id="k" width="100%" height="100%" x="0%" y="0%" filterUnits="objectBoundingBox"><feComponentTransfer in="SourceGraphic"><feFuncA tableValues="1.0 0.0" type="table"/></feComponentTransfer></filter><filter id="m" width="100%" height="100%" x="0%" y="0%" filterUnits="objectBoundingBox"><feComponentTransfer in="SourceGraphic"><feFuncA tableValues="1.0 0.0" type="table"/></feComponentTransfer></filter><filter id="o" width="100%" height="100%" x="0%" y="0%" filterUnits="objectBoundingBox"><feComponentTransfer in="SourceGraphic"><feFuncA tableValues="1.0 0.0" type="table"/></feComponentTransfer></filter><filter id="r" width="100%" height="100%" x="0%" y="0%" filterUnits="objectBoundingBox"><feComponentTransfer in="SourceGraphic"><feFuncA tableValues="1.0 0.0" type="table"/></feComponentTransfer></filter><filter id="u" width="100%" height="100%" x="0%" y="0%" filterUnits="objectBoundingBox"><feComponentTransfer in="SourceGraphic"><feFuncA tableValues="1.0 0.0" type="table"/></feComponentTransfer></filter><filter id="x" width="100%" height="100%" x="0%" y="0%" filterUnits="objectBoundingBox"><feComponentTransfer in="SourceGraphic"><feFuncA tableValues="1.0 0.0" type="table"/></feComponentTransfer></filter><filter id="A" width="100%" height="100%" x="0%" y="0%" filterUnits="objectBoundingBox"><feComponentTransfer in="SourceGraphic"><feFuncA tableValues="1.0 0.0" type="table"/></feComponentTransfer></filter><filter id="C" width="100%" height="100%" x="0%" y="0%" filterUnits="objectBoundingBox"><feComponentTransfer in="SourceGraphic"><feFuncA tableValues="1.0 0.0" type="table"/></feComponentTransfer></filter><filter id="E" width="100%" height="100%" x="0%" y="0%" filterUnits="objectBoundingBox"><feComponentTransfer in="SourceGraphic"><feFuncA tableValues="1.0 0.0" type="table"/></feComponentTransfer></filter><filter id="G" width="100%" height="100%" x="0%" y="0%" filterUnits="objectBoundingBox"><feComponentTransfer in="SourceGraphic"><feFuncA tableValues="1.0 0.0" type="table"/></feComponentTransfer></filter><filter id="I" width="100%" height="100%" x="0%" y="0%" filterUnits="objectBoundingBox"><feComponentTransfer in="SourceGraphic"><feFuncA tableValues="1.0 0.0" type="table"/></feComponentTransfer></filter><filter id="K" width="100%" height="100%" x="0%" y="0%" filterUnits="objectBoundingBox"><feComponentTransfer in="SourceGraphic"><feFuncA tableValues="1.0 0.0" type="table"/></feComponentTransfer></filter><filter id="N" width="100%" height="100%" x="0%" y="0%" filterUnits="objectBoundingBox"><feComponentTransfer in="SourceGraphic"><feFuncA tableValues="1.0 0.0" type="table"/></feComponentTransfer></filter><filter id="Q" width="100%" height="100%" x="0%" y="0%" filterUnits="objectBoundingBox"><feComponentTransfer in="SourceGraphic"><feFuncA tableValues="1.0 0.0" type="table"/></feComponentTransfer></filter><filter id="S" width="100%" height="100%" x="0%" y="0%" filterUnits="objectBoundingBox"><feComponentTransfer in="SourceGraphic"><feFuncA tableValues="1.0 0.0" type="table"/></feComponentTransfer></filter><filter id="U" width="100%" height="100%" x="0%" y="0%" filterUnits="objectBoundingBox"><feComponentTransfer in="SourceGraphic"><feFuncA tableValues="1.0 0.0" type="table"/></feComponentTransfer></filter><filter id="W" width="100%" height="100%" x="0%" y="0%" filterUnits="objectBoundingBox"><feComponentTransfer in="SourceGraphic"><feFuncA tableValues="1.0 0.0" type="table"/></feComponentTransfer></filter><filter id="Y" width="100%" height="100%" x="0%" y="0%" filterUnits="objectBoundingBox"><feComponentTransfer in="SourceGraphic"><feFuncA tableValues="1.0 0.0" type="table"/></feComponentTransfer></filter><filter id="aa" width="100%" height="100%" x="0%" y="0%" filterUnits="objectBoundingBox"><feComponentTransfer in="SourceGraphic"><feFuncA tableValues="1.0 0.0" type="table"/></feComponentTransfer></filter><clipPath id="aj"><path d="M0 0h430v430H0z"/></clipPath><clipPath id="aZ"><path d="M0 0h430v430H0z"/></clipPath><clipPath id="aO"><path d="M0 0h430v430H0z"/></clipPath><clipPath id="aP"><path d="M0 0h430v430H0z"/></clipPath><clipPath id="ad"><path d="M0 0h430v430H0z"/></clipPath><clipPath id="aX"><path d="M0 0h430v430H0z"/></clipPath><clipPath id="aK"><path d="M0 0h430v430H0z"/></clipPath><clipPath id="af"><path d="M0 0h430v430H0z"/></clipPath><clipPath id="az"><path d="M0 0h430v430H0z"/></clipPath><clipPath id="aA"><path d="M0 0h430v430H0z"/></clipPath><clipPath id="ag"><path d="M0 0h430v430H0z"/></clipPath><clipPath id="aI"><path d="M0 0h430v430H0z"/></clipPath><clipPath id="ay"><path d="M0 0h430v430H0z"/></clipPath><clipPath id="an"><path d="M0 0h430v430H0z"/></clipPath><clipPath id="ao"><path d="M0 0h430v430H0z"/></clipPath><clipPath id="ah"><path d="M0 0h430v430H0z"/></clipPath><clipPath id="aw"><path d="M0 0h430v430H0z"/></clipPath><clipPath id="am"><path d="M0 0h430v430H0z"/></clipPath><clipPath id="ak"><path d="M0 0h430v430H0z"/></clipPath><clipPath id="ai"><path d="M0 0h430v430H0z"/></clipPath><path id="d" fill="#EBE6EE" d="M133.13 168.62V-11.67L0-132.62-133.123-11.836l-.007.006v180.45a4 4 0 0 0 4 4h258.26a4 4 0 0 0 4-4" class="senary" style="display:block" transform="matrix(-1 0 0 1 237 226.47)"/><path id="f" class="senary" style="display:none"/><path id="h" class="senary" style="display:none"/><path id="j" fill="#EBE6EF" d="M133.13 148.62V-31.67L0-152.62-133.123-31.836l-.007.006v180.45a4 4 0 0 0 4 4h258.26a4 4 0 0 0 4-4" style="display:none" transform="translate(237 244.97)"/><path id="l" style="display:none"/><path id="n" fill="#EBE6EF" d="m143.269 148.441.223-193.29-33.544.164-5.504.013-.222 193.45c0 1.061.215 2.078.596 2.828s.899 1.172 1.438 1.172l34.98-.337c.539 0 1.057-.421 1.438-1.171s.595-1.768.595-2.829" style="display:none" transform="translate(235 222.97)"/><path id="t" style="display:none"/><path id="v" style="display:none"/><path id="z" class="senary" style="display:none"/><path id="B" class="senary" style="display:none"/><path id="D" class="senary" style="display:none"/><path id="F" style="display:none"/><path id="H" style="display:none"/><path id="J" style="display:none"/><path id="P" class="senary" style="display:none"/><path id="R" class="senary" style="display:none"/><path id="T" class="senary" style="display:none"/><path id="V" style="display:none"/><path id="X" style="display:none"/><path id="Z" style="display:none"/><g id="a" clip-path="url(#ad)" style="display:none"><g style="display:none"><path class="primary"/><path fill-opacity="0" stroke-linecap="round" stroke-linejoin="round" class="primary"/></g><g style="display:none"><path class="primary"/><path fill-opacity="0" stroke-linecap="round" stroke-linejoin="round" class="primary"/></g><g style="display:none"><path class="primary"/><path fill-opacity="0" stroke-linecap="round" stroke-linejoin="round" class="primary"/></g><g style="display:none"><path class="primary"/><path fill-opacity="0" stroke-linecap="round" stroke-linejoin="round" class="primary"/></g><g style="display:none"><path class="primary"/><path fill-opacity="0" stroke-linecap="round" stroke-linejoin="round" class="primary"/></g></g><g id="p" style="display:block"><path fill="#393346" d="m331.127 72.78-.008 87.89-44.369-41.3V72.78c0-1.061-.001-2.078-.003-2.828a52 52 0 0 0-.009-1.172h40.389a4 4 0 0 1 4 4" class="quaternary"/><path fill-opacity="0" stroke="#393346" d="m331.127 72.78-.008 87.89-44.369-41.3V72.78c0-1.061-.001-2.078-.003-2.828a52 52 0 0 0-.009-1.172h40.389a4 4 0 0 1 4 4z" class="quaternary"/></g><g id="q" clip-path="url(#af)" style="display:none"><g style="display:none"><path class="primary"/><path fill-opacity="0" stroke-linecap="round" stroke-linejoin="round" class="primary"/></g><g style="display:none"><path class="primary"/><path fill-opacity="0" stroke-linecap="round" stroke-linejoin="round" class="primary"/></g></g><g id="w" clip-path="url(#ag)" style="display:none"><g style="display:none"><path class="primary"/><path fill-opacity="0" stroke-linecap="round" stroke-linejoin="round" class="primary"/></g><g style="display:none"><path class="primary"/><path fill-opacity="0" stroke-linecap="round" stroke-linejoin="round" class="primary"/></g><g style="display:none"><path class="primary"/><path fill-opacity="0" stroke-linecap="round" stroke-linejoin="round" class="primary"/></g><g style="display:none"><path class="primary"/><path fill-opacity="0" stroke-linecap="round" stroke-linejoin="round" class="primary"/></g><g style="display:none"><path class="primary"/><path fill-opacity="0" stroke-linecap="round" stroke-linejoin="round" class="primary"/></g></g><g id="L" style="display:none"><path class="quaternary"/><path fill-opacity="0" class="quaternary"/></g><g id="M" clip-path="url(#ah)" style="display:none"><g style="display:none"><path class="primary"/><path fill-opacity="0" stroke-linecap="round" stroke-linejoin="round" class="primary"/></g><g style="display:none"><path class="primary"/><path fill-opacity="0" stroke-linecap="round" stroke-linejoin="round" class="primary"/></g><g style="display:none"><path class="primary"/><path fill-opacity="0" stroke-linecap="round" stroke-linejoin="round" class="primary"/></g><g style="display:none"><path class="primary"/><path fill-opacity="0" stroke-linecap="round" stroke-linejoin="round" class="primary"/></g><g style="display:none"><path class="primary"/><path fill-opacity="0" stroke-linecap="round" stroke-linejoin="round" class="primary"/></g></g><g id="ab" style="display:none"><path class="quaternary"/><path fill-opacity="0" class="quaternary"/></g><g id="ac" clip-path="url(#ai)" style="display:none"><path class="primary" style="display:none"/><path class="primary" style="display:none"/><g style="display:none"><path class="primary"/><path fill-opacity="0" stroke-linecap="round" stroke-linejoin="round" class="primary"/></g><path class="primary" style="display:none"/></g></defs><g clip-path="url(#aj)"><g clip-path="url(#ak)" style="display:none"><g style="display:none"><path class="quaternary"/><path fill="none" class="quaternary"/><g style="mix-blend-mode:multiply"><path class="quaternary"/><path fill="none" class="quaternary"/></g></g><g style="display:none"><path class="senary"/><path class="senary" style="mix-blend-mode:multiply"/></g><g style="display:none"><path class="quaternary"/><path class="quaternary" style="mix-blend-mode:multiply"/></g><path class="quaternary" style="mix-blend-mode:multiply;display:none"/><path class="senary" style="display:none"/><path class="secondary" style="display:none"/><path class="secondary" style="display:none"/><g style="display:none"><path class="tertiary"/><path class="tertiary" style="mix-blend-mode:multiply"/><path class="quaternary"/></g><path class="primary" style="display:none"/><path class="primary" style="display:none"/><path class="primary" style="display:none"/><path class="primary" style="display:none"/><g mask="url(#al)" style="mix-blend-mode:multiply;display:none"><path class="primary"/></g></g><g clip-path="url(#am)" style="display:none"><g style="display:none"><path class="senary"/><path class="senary" style="mix-blend-mode:multiply"/></g><path fill="none" class="secondary" style="display:none"/><g style="display:none"><path class="senary"/><path class="senary" style="mix-blend-mode:multiply"/></g><path fill="none" class="secondary" style="display:none"/><g style="display:none"><path class="senary"/><path class="senary" style="mix-blend-mode:multiply"/></g><g style="display:none"><path class="quaternary"/><path fill="none" class="quaternary"/><g style="mix-blend-mode:multiply"><path class="quaternary"/><path fill="none" class="quaternary"/></g></g><path class="secondary" style="display:none"/><g style="display:none"><path class="tertiary"/><path class="tertiary" style="mix-blend-mode:multiply"/><path class="quaternary"/></g></g><g clip-path="url(#an)" style="display:none"><g clip-path="url(#ao)" style="display:none"><g style="display:none"><path class="quaternary"/><path fill="none" class="quaternary"/></g><g mask="url(#ap)" style="mix-blend-mode:multiply;display:none"><path class="quaternary"/><path fill="none" class="quaternary"/></g><path class="senary" style="display:none"/><g mask="url(#aq)" style="mix-blend-mode:multiply;display:none"><path class="senary"/></g><path class="senary" style="display:none"/><g mask="url(#ar)" style="mix-blend-mode:multiply;display:none"><path class="senary"/></g><path class="senary" style="display:none"/><g mask="url(#as)" style="mix-blend-mode:multiply;display:none"><path class="senary"/></g><path class="senary" style="display:none"/><g mask="url(#at)" style="mix-blend-mode:multiply;display:none"><path class="senary"/></g><path class="senary" style="display:none"/><g mask="url(#au)" style="mix-blend-mode:multiply;display:none"><path class="senary"/></g><path class="senary" style="display:none"/><g mask="url(#av)" style="mix-blend-mode:multiply;display:none"><path class="senary"/></g><path class="secondary" style="display:none"/><path class="secondary" style="display:none"/><path class="secondary" style="display:none"/><path class="secondary" style="display:none"/><g style="display:none"><path class="quaternary"/><path fill="none" class="quaternary"/></g><g style="mix-blend-mode:multiply;display:none"><path class="quaternary"/><path fill="none" class="quaternary"/></g><g style="display:none"><path class="quaternary"/><path fill="none" class="quaternary"/></g><path class="quaternary" style="display:none"/><path class="quaternary" style="mix-blend-mode:multiply;display:none"/><g clip-path="url(#aw)" style="display:none"><g style="display:none"><path class="primary"/><path fill="none" class="primary"/></g><g style="display:none"><path class="primary"/><path fill="none" class="primary"/></g><g style="display:none"><path class="primary"/><path fill="none" class="primary"/></g><g style="display:none"><path class="primary"/><path fill="none" class="primary"/></g><g style="display:none"><path class="primary"/><path fill="none" class="primary"/></g></g><g mask="url(#ax)" style="mix-blend-mode:multiply;display:none"><path class="primary"/><path fill="none" class="primary"/><path class="primary"/><path fill="none" class="primary"/></g><g style="display:none"><path class="quaternary"/><path fill="none" class="quaternary"/></g><g style="display:none"><path class="quaternary"/><path fill="none" class="quaternary"/></g><path fill="none" class="quaternary" style="display:none"/><g style="display:none"><path class="tertiary"/><path class="tertiary" style="mix-blend-mode:multiply"/><path class="quaternary"/></g></g></g><g clip-path="url(#ay)" style="display:none"><path fill="none" class="quinary" style="display:none"/><path fill="none" class="quinary" style="display:none"/><path fill="none" class="quinary" style="display:none"/><path fill="none" class="quinary" style="display:none"/><path fill="none" class="quinary" style="display:none"/><path fill="none" class="quinary" style="display:none"/><g style="display:none"><path class="senary"/><path class="senary" style="mix-blend-mode:multiply"/></g><g style="display:none"><path class="quaternary"/><path fill="none" class="quaternary"/><g style="mix-blend-mode:multiply"><path class="quaternary"/><path fill="none" class="quaternary"/></g></g><path class="secondary" style="display:none"/><g style="display:none"><path class="tertiary"/><path class="tertiary" style="mix-blend-mode:multiply"/><path class="quaternary"/></g></g><g clip-path="url(#az)" style="display:none"><g clip-path="url(#aA)" style="display:none"><g style="display:none"><path class="quaternary"/><path fill="none" class="quaternary"/></g><g mask="url(#aB)" style="mix-blend-mode:multiply;display:none"><path class="quaternary"/><path fill="none" class="quaternary"/></g><path class="senary" style="display:none"/><g mask="url(#aC)" style="mix-blend-mode:multiply;display:none"><path class="senary"/></g><path class="senary" style="display:none"/><g mask="url(#aD)" style="mix-blend-mode:multiply;display:none"><path class="senary"/></g><path class="senary" style="display:none"/><g mask="url(#aE)" style="mix-blend-mode:multiply;display:none"><path class="senary"/></g><path class="senary" style="display:none"/><g mask="url(#aF)" style="mix-blend-mode:multiply;display:none"><path class="senary"/></g><path class="senary" style="display:none"/><g mask="url(#aG)" style="mix-blend-mode:multiply;display:none"><path class="senary"/></g><path class="senary" style="display:none"/><g mask="url(#aH)" style="mix-blend-mode:multiply;display:none"><path class="senary"/></g><path class="secondary" style="display:none"/><path class="secondary" style="display:none"/><path class="secondary" style="display:none"/><path class="secondary" style="display:none"/><g style="display:none"><path class="quaternary"/><path fill="none" class="quaternary"/></g><g style="mix-blend-mode:multiply;display:none"><path class="quaternary"/><path fill="none" class="quaternary"/></g><g style="display:none"><path class="quaternary"/><path fill="none" class="quaternary"/></g><path class="quaternary" style="display:none"/><path class="quaternary" style="mix-blend-mode:multiply;display:none"/><g clip-path="url(#aI)" style="display:none"><g style="display:none"><path class="primary"/><path fill="none" class="primary"/></g><g style="display:none"><path class="primary"/><path fill="none" class="primary"/></g><g style="display:none"><path class="primary"/><path fill="none" class="primary"/></g><g style="display:none"><path class="primary"/><path fill="none" class="primary"/></g><g style="display:none"><path class="primary"/><path fill="none" class="primary"/></g></g><g mask="url(#aJ)" style="mix-blend-mode:multiply;display:none"><path class="primary"/><path fill="none" class="primary"/><path class="primary"/><path fill="none" class="primary"/></g><g style="display:none"><path class="quaternary"/><path fill="none" class="quaternary"/></g><g style="display:none"><path class="quaternary"/><path fill="none" class="quaternary"/></g><path fill="none" class="quaternary" style="display:none"/><g style="display:none"><path class="tertiary"/><path class="tertiary" style="mix-blend-mode:multiply"/><path class="quaternary"/></g></g></g><g clip-path="url(#aK)" style="display:none"><path class="senary" style="display:none"/><g mask="url(#aL)" style="mix-blend-mode:multiply;display:none"><path class="senary"/></g><path class="senary" style="display:none"/><g mask="url(#aM)" style="mix-blend-mode:multiply;display:none"><path class="senary"/></g><path class="secondary" style="display:none"/><g style="display:none"><path class="quaternary"/><path fill="none" class="quaternary"/></g><g style="mix-blend-mode:multiply;display:none"><path class="quaternary"/><path fill="none" class="quaternary"/></g><g style="display:none"><path class="quaternary"/><path fill="none" class="quaternary"/></g><g style="display:none"><path class="primary"/><path fill="none" class="primary"/></g><g style="display:none"><path class="primary"/><path fill="none" class="primary"/></g><g mask="url(#aN)" style="mix-blend-mode:multiply;display:none"><path class="primary"/><path fill="none" class="primary"/><path class="primary"/><path fill="none" class="primary"/></g><g style="display:none"><path class="quaternary"/><path fill="none" class="quaternary"/></g><g style="display:none"><path class="tertiary"/><path class="tertiary" style="mix-blend-mode:multiply"/><path class="quaternary"/></g></g><g clip-path="url(#aO)" style="display:block"><g clip-path="url(#aP)" style="display:block"><g style="display:block"><path fill="#393346" d="m319.065 72.78-.068 70.89-48.217-41.3.083-29.59a4 4 0 0 1 4-4h40.202a4 4 0 0 1 4 4" class="quaternary"/><path fill="none" stroke="#393346" d="m319.065 72.78-.068 70.89-48.217-41.3.083-29.59a4 4 0 0 1 4-4h40.202a4 4 0 0 1 4 4z" class="quaternary"/></g><g opacity=".5" style="mix-blend-mode:multiply;display:block"><g mask="url(#aQ)" opacity="1"><path fill="#393346" d="m319.065 72.78-.068 70.89-48.217-41.3.083-29.59a4 4 0 0 1 4-4h40.202a4 4 0 0 1 4 4" class="quaternary"/><path fill="none" stroke="#393346" d="m319.065 72.78-.068 70.89-48.217-41.3.083-29.59a4 4 0 0 1 4-4h40.202a4 4 0 0 1 4 4z" class="quaternary"/></g></g><path fill="#EBE6EE" d="m133.269 148.441.223-193.29-33.544.164-5.504.013-.222 193.45c0 1.061.215 2.078.596 2.828s.899 1.172 1.438 1.172l34.98-.337c.539 0 1.057-.421 1.438-1.171s.595-1.768.595-2.829" class="senary" style="display:none" transform="translate(215 222.97)"/><g mask="url(#aR)" opacity=".5" style="mix-blend-mode:multiply;display:none"><path fill="#EBE6EE" d="m348.269 371.411.223-193.29-33.544.164-5.504.013-.222 193.45c0 1.061.215 2.078.596 2.828s.899 1.172 1.438 1.172l34.98-.337c.539 0 1.057-.421 1.438-1.171s.595-1.768.595-2.829" class="senary" opacity="1"/></g><path class="senary" style="display:none"/><g mask="url(#aS)" style="mix-blend-mode:multiply;display:none"><path class="senary"/></g><path fill="#EBE6EE" d="M133.13 148.62V-31.67L0-152.62-133.123-31.836l-.007.006v180.45a4 4 0 0 0 4 4h258.26a4 4 0 0 0 4-4" class="senary" style="display:none" transform="translate(215 222.97)"/><g mask="url(#aT)" opacity=".5" style="mix-blend-mode:multiply;display:none"><path fill="#EBE6EE" d="M348.13 371.59V191.3L215 70.35 81.877 191.134l-.007.006v180.45a4 4 0 0 0 4 4h258.26a4 4 0 0 0 4-4" class="senary" opacity="1"/></g><path class="senary" style="display:none"/><g mask="url(#aU)" style="mix-blend-mode:multiply;display:none"><path class="senary"/></g><path class="senary" style="display:none"/><g mask="url(#aV)" style="mix-blend-mode:multiply;display:none"><path class="senary"/></g><path fill="#EBE6EE" d="M133.13 148.62V-31.67L0-152.62-133.123-31.836l-.007.006v180.45a4 4 0 0 0 4 4h258.26a4 4 0 0 0 4-4" class="senary" style="display:block" transform="matrix(-1 0 0 1 217 222.97)"/><g mask="url(#aW)" opacity=".5" style="mix-blend-mode:multiply;display:block"><path fill="#EBE6EE" d="M83.87 371.59V191.3L217 70.35l133.123 120.784.007.006v180.45a4 4 0 0 1-4 4H87.87a4 4 0 0 1-4-4" class="senary" opacity="1"/></g><path fill="#F14B00" d="m0-53.605 149.31 135.52a4 4 0 0 0 5.69-.25l11.39-12.61a3.997 3.997 0 0 0-.27-5.65L8.42-79.745a12.51 12.51 0 0 0-16.8 0l-157.74 143.12a4 4 0 0 0-.27 5.65l11.39 12.64a4 4 0 0 0 2.794 1.295 4 4 0 0 0 2.886-1.075z" class="secondary" style="display:none" transform="translate(215 137.335)"/><path class="secondary" style="display:none"/><path class="secondary" style="display:none"/><path fill="#F14B00" d="m0-53.605 149.31 135.52a4 4 0 0 0 5.69-.25l11.39-12.61a3.997 3.997 0 0 0-.27-5.65L8.42-79.745a12.51 12.51 0 0 0-16.8 0l-157.74 143.12a4 4 0 0 0-.27 5.65l11.39 12.64a4 4 0 0 0 2.794 1.295 4 4 0 0 0 2.886-1.075z" class="secondary" style="display:block" transform="matrix(-1 0 0 1 215 137.335)"/><g style="display:none"><path fill="#393346" d="m270.66 72.84.035 27.015 47.14 43.7-.035-70.715a4 4 0 0 0-4-4h-39.14a4 4 0 0 0-4 4" class="quaternary"/><path fill="none" stroke="#393346" d="m270.66 72.84.035 27.015 47.14 43.7-.035-70.715a4 4 0 0 0-4-4h-39.14a4 4 0 0 0-4 4z" class="quaternary"/></g><g opacity=".5" style="mix-blend-mode:multiply;display:none"><g opacity="1"><path fill="#393346" d="m270.66 72.84.035 27.015 14.555 14.04.001-40.965c0-1.061.005-2.078.014-2.828s.022-1.172.035-1.172l-10.64-.09a4 4 0 0 0-4 4" class="quaternary"/><path fill="none" stroke="#393346" d="m270.66 72.84.035 27.015 14.555 14.04.001-40.965c0-1.061.005-2.078.014-2.828s.022-1.172.035-1.172l-10.64-.09a4 4 0 0 0-4 4z" class="quaternary"/></g></g><g style="display:none"><path fill="#393346" d="m317.875 72.805-.022 70.265-.018.485-.035-70.715a4 4 0 0 0-4-4l-.14-.035c1.118 0 2.191.422 2.981 1.172a3.9 3.9 0 0 1 1.234 2.828" class="quaternary"/><path fill="none" stroke="#393346" d="m317.875 72.805-.022 70.265-.018.485-.035-70.715a4 4 0 0 0-4-4l-.14-.035c1.118 0 2.191.422 2.981 1.172a3.9 3.9 0 0 1 1.234 2.828z" class="quaternary"/></g><path class="quaternary" style="display:none"/><path class="quaternary" style="mix-blend-mode:multiply;display:none"/><g clip-path="url(#aX)" style="display:none"><g style="display:none"><path class="primary"/><path fill="none" class="primary"/></g><g style="display:none"><path class="primary"/><path fill="none" class="primary"/></g><g style="display:none"><path class="primary"/><path fill="none" class="primary"/></g><g style="display:none"><path class="primary"/><path fill="none" class="primary"/></g><g style="display:none"><path class="primary"/><path fill="none" class="primary"/></g></g><g mask="url(#aY)" opacity=".5" style="mix-blend-mode:multiply;display:none"><g opacity="1"><path fill="#4AB3FC" d="m-9 96-46 3L96 440h47zm101 0-46 3 151 341h47zm99 0-46 3 151 341h47zm99 0-46 3 151 341h47z" class="primary"/><path fill="none" d="m-9 96-46 3L96 440h47zm101 0-46 3 151 341h47zm99 0-46 3 151 341h47zm99 0-46 3 151 341h47z" class="primary"/></g><g opacity="1"><path fill="#4AB3FC" d="m392.98 96-46 3 151 341h47zm101 0-46 3 151 341h47zm99 0-46 3 151 341h47zm99 0-46 3 151 341h47z" class="primary"/><path fill="none" d="m392.98 96-46 3 151 341h47zm101 0-46 3 151 341h47zm99 0-46 3 151 341h47zm99 0-46 3 151 341h47z" class="primary"/></g></g><g style="display:none"><path class="quaternary"/><path fill="none" class="quaternary"/></g><g style="display:none"><path class="quaternary"/><path fill="none" class="quaternary"/></g><path fill="none" class="quaternary" style="display:none"/><g style="display:block"><path fill="#B16836" d="M172.717 242.003v133.59l90.716.003v-133.59a4 4 0 0 0-4-4l-82.716-.003a4 4 0 0 0-4 4" class="tertiary"/><path fill="#B16836" d="m-38.223-68.792 16.03.006v137.59l-20.03-.006v-133.59a4 4 0 0 1 4-4" class="tertiary" opacity=".5" style="mix-blend-mode:multiply" transform="translate(215 306.795)"/><path fill="#393346" d="M246.847 302.197a6 6 0 1 1 .001 12 6 6 0 0 1 0-12" class="quaternary"/></g></g></g><g clip-path="url(#aZ)" style="display:none"><g style="display:none"><path class="senary"/><path class="senary" style="mix-blend-mode:multiply"/></g><g style="display:none"><path class="quaternary"/><path fill="none" class="quaternary"/><g style="mix-blend-mode:multiply"><path class="quaternary"/><path fill="none" class="quaternary"/></g></g><path class="secondary" style="display:none"/><g style="display:none"><path class="tertiary"/><path class="tertiary" style="mix-blend-mode:multiply"/><path class="quaternary"/></g></g></g></svg>